<svg id="visual" viewBox="0 0 900 600" width="900" height="600" xmlns="http://www.w3.org/2000/svg" xmlns:xlink="http://www.w3.org/1999/xlink" version="1.1"><rect x="0" y="0" width="900" height="600" fill="#ffffff"></rect><path d="M0 412L13.7 407.5C27.3 403 54.7 394 82 407.8C109.3 421.7 136.7 458.3 163.8 463.3C191 468.3 218 441.7 245.2 427.3C272.3 413 299.7 411 327 408.2C354.3 405.3 381.7 401.7 409 411.2C436.3 420.7 463.7 443.3 491 459.5C518.3 475.7 545.7 485.3 573 483.3C600.3 481.3 627.7 467.7 654.8 462.8C682 458 709 462 736.2 456.5C763.3 451 790.7 436 818 426.5C845.3 417 872.7 413 886.3 411L900 409L900 601L886.3 601C872.7 601 845.3 601 818 601C790.7 601 763.3 601 736.2 601C709 601 682 601 654.8 601C627.7 601 600.3 601 573 601C545.7 601 518.3 601 491 601C463.7 601 436.3 601 409 601C381.7 601 354.3 601 327 601C299.7 601 272.3 601 245.2 601C218 601 191 601 163.8 601C136.7 601 109.3 601 82 601C54.7 601 27.3 601 13.7 601L0 601Z" fill="#f6d860"></path><path d="M0 478L13.7 471.7C27.3 465.3 54.7 452.7 82 449.2C109.3 445.7 136.7 451.3 163.8 459.8C191 468.3 218 479.7 245.2 482.5C272.3 485.3 299.7 479.7 327 473.8C354.3 468 381.7 462 409 457C436.3 452 463.7 448 491 454.8C518.3 461.7 545.7 479.3 573 482C600.3 484.7 627.7 472.3 654.8 477.2C682 482 709 504 736.2 506.2C763.3 508.3 790.7 490.7 818 485C845.3 479.3 872.7 485.7 886.3 488.8L900 492L900 601L886.3 601C872.7 601 845.3 601 818 601C790.7 601 763.3 601 736.2 601C709 601 682 601 654.8 601C627.7 601 600.3 601 573 601C545.7 601 518.3 601 491 601C463.7 601 436.3 601 409 601C381.7 601 354.3 601 327 601C299.7 601 272.3 601 245.2 601C218 601 191 601 163.8 601C136.7 601 109.3 601 82 601C54.7 601 27.3 601 13.7 601L0 601Z" fill="#ed887b"></path><path d="M0 551L13.7 546.7C27.3 542.3 54.7 533.7 82 533.8C109.3 534 136.7 543 163.8 539.5C191 536 218 520 245.2 520.5C272.3 521 299.7 538 327 536.7C354.3 535.3 381.7 515.7 409 505.5C436.3 495.3 463.7 494.7 491 501.5C518.3 508.3 545.7 522.7 573 529.2C600.3 535.7 627.7 534.3 654.8 531.5C682 528.7 709 524.3 736.2 517.2C763.3 510 790.7 500 818 493.5C845.3 487 872.7 484 886.3 482.5L900 481L900 601L886.3 601C872.7 601 845.3 601 818 601C790.7 601 763.3 601 736.2 601C709 601 682 601 654.8 601C627.7 601 600.3 601 573 601C545.7 601 518.3 601 491 601C463.7 601 436.3 601 409 601C381.7 601 354.3 601 327 601C299.7 601 272.3 601 245.2 601C218 601 191 601 163.8 601C136.7 601 109.3 601 82 601C54.7 601 27.3 601 13.7 601L0 601Z" fill="#906487"></path><path d="M0 553L13.7 553C27.3 553 54.7 553 82 550.5C109.3 548 136.7 543 163.8 538.2C191 533.3 218 528.7 245.2 527.7C272.3 526.7 299.7 529.3 327 535C354.3 540.7 381.7 549.3 409 557.7C436.3 566 463.7 574 491 567.8C518.3 561.7 545.7 541.3 573 535C600.3 528.7 627.7 536.3 654.8 540.8C682 545.3 709 546.7 736.2 548C763.3 549.3 790.7 550.7 818 552.3C845.3 554 872.7 556 886.3 557L900 558L900 601L886.3 601C872.7 601 845.3 601 818 601C790.7 601 763.3 601 736.2 601C709 601 682 601 654.8 601C627.7 601 600.3 601 573 601C545.7 601 518.3 601 491 601C463.7 601 436.3 601 409 601C381.7 601 354.3 601 327 601C299.7 601 272.3 601 245.2 601C218 601 191 601 163.8 601C136.7 601 109.3 601 82 601C54.7 601 27.3 601 13.7 601L0 601Z" fill="#3d4451"></path></svg>