<svg id="visual" viewBox="0 0 900 600" width="900" height="600" xmlns="http://www.w3.org/2000/svg" xmlns:xlink="http://www.w3.org/1999/xlink" version="1.1"><rect x="0" y="0" width="900" height="600" fill="#ffffff"></rect><path d="M0 162L13.7 165C27.3 168 54.7 174 82 169.3C109.3 164.7 136.7 149.3 163.8 142.5C191 135.7 218 137.3 245.2 149.7C272.3 162 299.7 185 327 181C354.3 177 381.7 146 409 146.7C436.3 147.3 463.7 179.7 491 187.7C518.3 195.7 545.7 179.3 573 162.5C600.3 145.7 627.7 128.3 654.8 118.3C682 108.3 709 105.7 736.2 119.2C763.3 132.7 790.7 162.3 818 173.2C845.3 184 872.7 176 886.3 172L900 168L900 0L886.3 0C872.7 0 845.3 0 818 0C790.7 0 763.3 0 736.2 0C709 0 682 0 654.8 0C627.7 0 600.3 0 573 0C545.7 0 518.3 0 491 0C463.7 0 436.3 0 409 0C381.7 0 354.3 0 327 0C299.7 0 272.3 0 245.2 0C218 0 191 0 163.8 0C136.7 0 109.3 0 82 0C54.7 0 27.3 0 13.7 0L0 0Z" fill="#f6d860"></path><path d="M0 151L13.7 139C27.3 127 54.7 103 82 106C109.3 109 136.7 139 163.8 143.5C191 148 218 127 245.2 114.3C272.3 101.7 299.7 97.3 327 107.2C354.3 117 381.7 141 409 145C436.3 149 463.7 133 491 118.3C518.3 103.7 545.7 90.3 573 87C600.3 83.7 627.7 90.3 654.8 91.7C682 93 709 89 736.2 89.3C763.3 89.7 790.7 94.3 818 99.8C845.3 105.3 872.7 111.7 886.3 114.8L900 118L900 0L886.3 0C872.7 0 845.3 0 818 0C790.7 0 763.3 0 736.2 0C709 0 682 0 654.8 0C627.7 0 600.3 0 573 0C545.7 0 518.3 0 491 0C463.7 0 436.3 0 409 0C381.7 0 354.3 0 327 0C299.7 0 272.3 0 245.2 0C218 0 191 0 163.8 0C136.7 0 109.3 0 82 0C54.7 0 27.3 0 13.7 0L0 0Z" fill="#ed887b"></path><path d="M0 53L13.7 59.3C27.3 65.7 54.7 78.3 82 86.7C109.3 95 136.7 99 163.8 93.5C191 88 218 73 245.2 67.3C272.3 61.7 299.7 65.3 327 66.2C354.3 67 381.7 65 409 65C436.3 65 463.7 67 491 70C518.3 73 545.7 77 573 72.7C600.3 68.3 627.7 55.7 654.8 57.8C682 60 709 77 736.2 88.7C763.3 100.3 790.7 106.7 818 106C845.3 105.3 872.7 97.7 886.3 93.8L900 90L900 0L886.3 0C872.7 0 845.3 0 818 0C790.7 0 763.3 0 736.2 0C709 0 682 0 654.8 0C627.7 0 600.3 0 573 0C545.7 0 518.3 0 491 0C463.7 0 436.3 0 409 0C381.7 0 354.3 0 327 0C299.7 0 272.3 0 245.2 0C218 0 191 0 163.8 0C136.7 0 109.3 0 82 0C54.7 0 27.3 0 13.7 0L0 0Z" fill="#906487"></path><path d="M0 51L13.7 46.8C27.3 42.7 54.7 34.3 82 30.5C109.3 26.7 136.7 27.3 163.8 34.7C191 42 218 56 245.2 56.7C272.3 57.3 299.7 44.7 327 38.3C354.3 32 381.7 32 409 37.8C436.3 43.7 463.7 55.3 491 58.3C518.3 61.3 545.7 55.7 573 57.8C600.3 60 627.7 70 654.8 68.2C682 66.3 709 52.7 736.2 41.7C763.3 30.7 790.7 22.3 818 19.5C845.3 16.7 872.7 19.3 886.3 20.7L900 22L900 0L886.3 0C872.7 0 845.3 0 818 0C790.7 0 763.3 0 736.2 0C709 0 682 0 654.8 0C627.7 0 600.3 0 573 0C545.7 0 518.3 0 491 0C463.7 0 436.3 0 409 0C381.7 0 354.3 0 327 0C299.7 0 272.3 0 245.2 0C218 0 191 0 163.8 0C136.7 0 109.3 0 82 0C54.7 0 27.3 0 13.7 0L0 0Z" fill="#3d4451"></path></svg>